<?xml version="1.0" encoding="UTF-8"?><svg id="Capa_2" xmlns="http://www.w3.org/2000/svg" viewBox="0 0 128 108.7684"><g id="Capa_1-2"><path d="M32.8681,63.6386c-2.1242-1.118-4.6238-1.6849-7.4311-1.6849H9v37.8147h11.4869v-10.7284h4.597c2.8701,0,5.4264-.5462,7.5981-1.6227,2.2-1.0902,3.9368-2.6693,5.1618-4.6925,1.2217-2.0183,1.8415-4.4263,1.8415-7.1572,0-2.7026-.6024-5.1067-1.7903-7.1447-1.1928-2.0473-2.8843-3.6569-5.027-4.7842ZM20.4869,71.4648h2.6207c1.0204,0,1.8923.1708,2.5913.5074.6733.3252,1.1748.7737,1.5338,1.3707.3596.6002.5424,1.3488.5424,2.2246,0,.8676-.1839,1.6211-.5467,2.2404-.3607.6149-.8638,1.0771-1.5371,1.4116-.6979.3459-1.5671.5211-2.5836.5211h-2.6207v-8.2758Z" fill="#1254a1"/><polygon points="55.5308 61.9537 44.0439 61.9537 44.0439 99.7684 70.1415 99.7684 70.1415 90.1869 55.5308 90.1869 55.5308 61.9537" fill="#1254a1"/><polygon points="104.5618 61.9537 96.5125 81.569 88.4637 61.9537 74.8526 61.9537 74.8526 99.7684 86.1278 99.7684 86.1278 81.6476 93.0443 99.4863 99.9789 99.4863 106.8971 81.7649 106.8971 99.7684 118.1723 99.7684 118.1723 61.9537 104.5618 61.9537" fill="#1254a1"/><path d="M93.1964,43.0052c-1.0388-2.8264-2.4816-5.0482-4.3277-6.6643-1.8473-1.6146-3.953-2.4234-6.318-2.4234-2.3085,0-4.3572.8088-6.1452,2.4234-1.789,1.6161-3.1886,3.8379-4.1975,6.6643-1.0103,2.8277-1.5147,6.0584-1.5147,9.6934,0,2.3794.2326,4.5523.6514,6.5601h22.7391c.431-2.0077.6702-4.1807.6702-6.5601,0-3.635-.5193-6.8657-1.5576-9.6934Z" fill="none"/><path d="M109.8268,29.6105v.0002h0v-1.2154h-4.0161c-1.08,0-2.0664-.4318-2.7883-1.1344-.7572-.7319-1.2283-1.7536-1.2283-2.8817v-4.0161h-1.2148v4.0161c0,1.4214.5802,2.769,1.5988,3.7549.2338.2271.4883.4268.7553.6043.8477.5631,1.8429.8721,2.8773.8721h4.0161Z" fill="#2671bc"/><path d="M96.6373,28.3955h5.1573v5.1568c0,2.2113,1.808,4.0165,4.0161,4.0165s4.0161-1.8053,4.0161-4.0165v-3.9416h-4.0161c-1.0344,0-2.0296-.309-2.8773-.8723-.267-.1774-.5215-.3771-.7555-.6041-1.0183-.9864-1.5988-2.3335-1.5988-3.7549v-4.0161h-3.9417c-2.2081,0-4.0161,1.808-4.0161,4.0161,0,2.2108,1.808,4.0161,4.0161,4.0161Z" fill="#3090ff"/><path d="M109.8268,29.6107v-.0002h-4.0161c-1.0344,0-2.0296-.309-2.8773-.8721.8477.5633,1.8429.8723,2.8773.8723h4.0161Z" fill="#3090ff"/><path d="M105.8105,28.3953h9.1734c2.2113,0,4.0161-1.8048,4.0161-4.0161,0-2.2077-1.8048-4.016-4.0161-4.016h-5.1573v-5.1573c0-2.2077-1.8078-4.0161-4.0161-4.0161s-4.0161,1.8084-4.0161,4.0161v9.1733c0,1.1281.4708,2.1498,1.2283,2.8817.7219.7026,1.7083,1.1344,2.7878,1.1344Z" fill="#3090ff"/><path d="M31.6721,43.9181c-1.3238,0-2.5109.2767-3.5578.8268-1.0488.5526-1.8763,1.3385-2.4828,2.3585-.6075,1.0217-.9096,2.1932-.9096,3.5169,0,1.1036.3021,2.0826.9096,2.9372.6066.8556,1.434,1.5309,2.4828,2.027,1.0469.4969,2.2339.7449,3.5578.7449,2.0957,0,3.8059-.5378,5.1295-1.6135,1.3246-1.0757,1.986-2.4412,1.986-4.0956,0-1.986-.6614-3.5996-1.986-4.8406-1.3236-1.2411-3.0338-1.8616-5.1295-1.8616Z" fill="none"/><path d="M31.6721,32.5825c1.8197,0,3.3227-.5657,4.5091-1.6962,1.1861-1.1306,1.7788-2.5509,1.7788-4.2618,0-1.6545-.5927-3.006-1.7788-4.0539-1.1863-1.0478-2.6893-1.5726-4.5091-1.5726s-3.2966.5248-4.4271,1.5726c-1.1315,1.0478-1.6964,2.3994-1.6964,4.0539,0,1.711.5649,3.1313,1.6964,4.2618,1.1305,1.1305,2.6067,1.6962,4.4271,1.6962Z" fill="none"/><path d="M51.9856,43.5866c-1.6447-2.586-4.0963-4.6283-7.3449-6.1365,2.466-1.2262,4.3942-2.8048,5.7724-4.744,1.6266-2.2881,2.4412-4.9503,2.4412-7.9841,0-3.0887-.8145-5.8197-2.4412-8.1921-1.6276-2.3707-4.0129-4.2201-7.1574-5.5438-3.1443-1.3237-7.0058-1.986-11.5836-1.986s-8.4269.6623-11.5426,1.986c-3.1175,1.3237-5.4752,3.1731-7.0748,5.5438-1.6005,2.3724-2.3995,5.1034-2.3995,8.1921,0,3.0338.7989,5.6961,2.3995,7.9841,1.3572,1.9428,3.2662,3.5239,5.7156,4.7512-3.2401,1.5075-5.6739,3.5472-7.2874,6.1293-1.6554,2.6483-2.4828,5.7379-2.4828,9.2678,0,2.3514.4513,4.4849,1.3453,6.4043h42.7959c.9086-1.9194,1.3675-4.053,1.3675-6.4043,0-3.5299-.8416-6.6195-2.5231-9.2678ZM27.2449,22.5706c1.1305-1.0478,2.6067-1.5726,4.4271-1.5726s3.3227.5248,4.5091,1.5726c1.1861,1.0478,1.7788,2.3994,1.7788,4.0539,0,1.711-.5927,3.1313-1.7788,4.2618-1.1863,1.1305-2.6893,1.6962-4.5091,1.6962s-3.2966-.5657-4.4271-1.6962c-1.1315-1.1306-1.6964-2.5509-1.6964-4.2618,0-1.6545.5649-3.006,1.6964-4.0539ZM36.8016,54.7159c-1.3236,1.0757-3.0338,1.6135-5.1295,1.6135-1.3238,0-2.5109-.248-3.5578-.7449-1.0488-.4961-1.8763-1.1715-2.4828-2.027-.6075-.8546-.9096-1.8337-.9096-2.9372,0-1.3237.3021-2.4952.9096-3.5169.6066-1.02,1.434-1.8059,2.4828-2.3585,1.0469-.5501,2.2339-.8268,3.5578-.8268,2.0957,0,3.8059.6205,5.1295,1.8616,1.3246,1.241,1.986,2.8545,1.986,4.8406,0,1.6545-.6614,3.0199-1.986,4.0956Z" fill="#3090ff"/><path d="M108.3423,52.7853c0-5.0529-.7511-9.6224-2.2481-13.7114-.4462.1618-.9245.2546-1.4248.2546-2.3175,0-4.2155-1.8949-4.2155-4.2161v-5.413h-5.4135c-2.3178,0-4.2158-1.895-4.2158-4.2157,0-.8787.274-1.6963.7387-2.3737-2.7561-1.1017-5.7597-1.6553-9.0127-1.6553-4.9633,0-9.3624,1.3413-13.1988,4.0244-3.8381,2.6829-6.8373,6.3762-9.0013,11.0783-2.1637,4.7032-3.2454,10.1126-3.2454,16.2279,0,2.2586.1668,4.4081.4627,6.4734h13.7768c-.4188-2.0077-.6514-4.1807-.6514-6.5601,0-3.635.5044-6.8657,1.5147-9.6934,1.0088-2.8264,2.4085-5.0482,4.1975-6.6643,1.788-1.6146,3.8367-2.4234,6.1452-2.4234,2.3651,0,4.4708.8088,6.318,2.4234,1.846,1.6161,3.2888,3.8379,4.3277,6.6643,1.0383,2.8277,1.5576,6.0584,1.5576,9.6934,0,2.3794-.2392,4.5523-.6702,6.5601h13.7897c.2996-2.0653.4688-4.2148.4688-6.4734Z" fill="#3090ff"/><rect x="9" y="9" width="110" height="90.7684" fill="none"/><rect x="9" y="9" width="110" height="90.7684" fill="none"/><rect width="128" height="108.7684" fill="none"/></g></svg>