<svg id="Grupo_773" data-name="Grupo 773" xmlns="http://www.w3.org/2000/svg" width="105.607" height="30.275" viewBox="0 0 105.607 30.275">
  <path id="Trazado_630" data-name="Trazado 630" d="M8.4,8.5H22.825c7.3,0,12.644,3.651,12.644,11.042,0,6.144-4.007,9.973-10.329,9.973H19.263V38.6H8.4ZM19.442,22.035H20.6c1.959,0,4.185-.267,4.185-2.76s-2.315-2.493-4.185-2.493H19.531Z" transform="translate(-8.4 -8.5)" fill="#efefef"/>
  <path id="Trazado_631" data-name="Trazado 631" d="M41.9,8.5H53.3V29.069h9.617v9.706H41.9Z" transform="translate(-12.07 -8.5)" fill="#efefef"/>
  <path id="Trazado_632" data-name="Trazado 632" d="M93.056,8.5h11.576L109.8,38.686H98.844L97.33,22.124h-.178a19.021,19.021,0,0,1-.8,3.028L91.809,38.686H85.22l-4.1-12.733a30.534,30.534,0,0,1-.712-3.74h-.356c-.089,1.247-.178,2.493-.267,3.651L78.453,38.775H67.5L72.487,8.5H84.151l4.274,15.85h.267a31.9,31.9,0,0,1,.8-4.007Z" transform="translate(-14.875 -8.5)" fill="#efefef"/>
  <path id="Trazado_633" data-name="Trazado 633" d="M115.8,13.587a4.987,4.987,0,1,1,4.987,4.987,4.978,4.978,0,0,1-4.987-4.987m.8,0a4.18,4.18,0,0,0,4.185,4.185,4.185,4.185,0,0,0,0-8.37,4.18,4.18,0,0,0-4.185,4.185m6.5,2.849h-.89l-1.425-2.582h-1.069v2.582h-.8v-5.61h2.4c.979,0,1.959.267,1.959,1.425a1.443,1.443,0,0,1-1.514,1.514,24.908,24.908,0,0,0,1.336,2.671m-3.384-4.808v1.425h.8c.8,0,1.87.178,1.87-.623,0-.712-.623-.8-1.336-.8Z" transform="translate(-20.166 -8.511)" fill="#efefef"/>
</svg>
