<?xml version="1.0" encoding="UTF-8"?><svg id="Capa_2" xmlns="http://www.w3.org/2000/svg" viewBox="0 0 192 74.34"><g id="Capa_1-2"><path d="M45.353,8.7742c-3.5023-1.8434-7.6236-2.7781-12.2522-2.7781H6v62.3478h18.9392v-17.6887h7.5795c4.7321,0,8.9469-.9005,12.5275-2.6755,3.6273-1.7975,6.4909-4.401,8.5106-7.7369,2.0143-3.3278,3.0363-7.2979,3.0363-11.8006,0-4.4559-.9932-8.4197-2.9517-11.7799-1.9666-3.3755-4.7555-6.0294-8.2884-7.888ZM24.9392,21.6777h4.321c1.6823,0,3.12.2816,4.2724.8367,1.1102.5362,1.9369,1.2757,2.5289,2.2599.5929.9896.8942,2.2239.8942,3.6678,0,1.4304-.3032,2.6728-.9014,3.6939-.5947,1.0139-1.4241,1.7759-2.5343,2.3274-1.1506.5704-2.5838.8592-4.2598.8592h-4.321v-13.6448Z" fill="#fff"/><polygon points="82.7186 5.9961 63.7794 5.9961 63.7794 68.3439 106.8083 68.3439 106.8083 52.5462 82.7186 52.5462 82.7186 5.9961" fill="#fff"/><polygon points="163.5594 5.9961 150.2879 38.3373 137.0173 5.9961 114.5758 5.9961 114.5758 68.3439 133.1659 68.3439 133.1659 38.4668 144.5698 67.8788 156.0033 67.8788 167.4098 38.6603 167.4098 68.3439 186 68.3439 186 5.9961 163.5594 5.9961" fill="#fff"/><rect width="192" height="74.34" fill="none"/></g></svg>